# xmcd
#
# Track frame offsets: 
#        150
#        25792
#        47250
#        71327
#        95827
#        129325
#        144820
#
# Disc length: 2489 seconds
#
# Revision: 6
# Processed by: cddbd v1.5.2PL0 Copyright (c) Steve Scherf et al.
# Submitted via: ExactAudioCopy v1.1
#
DISCID=5009b707
DTITLE=Luther Vandross - Busy Body
DYEAR=1983
DGENRE=Soul
TTITLE0=I Wanted Your Love
TTITLE1=Busy Body
TTITLE2=I'll Let You Slide
TTITLE3=Make Me A Believer
TTITLE4=For The Sweetness Of Your Love
TTITLE5=Luther Vandross - Dionne Warwick - How Many Times Can We Say Go
TTITLE5=odbye
TTITLE6=Until You Come Back To Me (That's What I'm Gonna Do)
EXTD=
EXTT0=
EXTT1=
EXTT2=
EXTT3=
EXTT4=
EXTT5=
EXTT6=
PLAYORDER=
